<svg width="141" height="17" viewBox="0 0 141 17" fill="none" xmlns="http://www.w3.org/2000/svg">
<path d="M2.90625 6.73828V15H0.09375V4.43359H2.74023L2.90625 6.73828ZM6.08984 4.36523L6.04102 6.97266C5.9043 6.95312 5.73828 6.93685 5.54297 6.92383C5.35417 6.9043 5.18164 6.89453 5.02539 6.89453C4.62826 6.89453 4.2832 6.94661 3.99023 7.05078C3.70378 7.14844 3.46289 7.29492 3.26758 7.49023C3.07878 7.68555 2.93555 7.92318 2.83789 8.20312C2.74674 8.48307 2.69466 8.80208 2.68164 9.16016L2.11523 8.98438C2.11523 8.30078 2.18359 7.67253 2.32031 7.09961C2.45703 6.52018 2.6556 6.01562 2.91602 5.58594C3.18294 5.15625 3.50846 4.82422 3.89258 4.58984C4.27669 4.35547 4.71615 4.23828 5.21094 4.23828C5.36719 4.23828 5.52669 4.2513 5.68945 4.27734C5.85221 4.29688 5.98568 4.32617 6.08984 4.36523ZM13.4922 0.78125L8.27734 16.2207H6.1875L11.4023 0.78125H13.4922ZM20.582 8.75977H16.9297L16.9102 6.74805H19.9766C20.5169 6.74805 20.9596 6.67969 21.3047 6.54297C21.6497 6.39974 21.9069 6.19466 22.0762 5.92773C22.252 5.6543 22.3398 5.32227 22.3398 4.93164C22.3398 4.48893 22.2552 4.13086 22.0859 3.85742C21.9232 3.58398 21.666 3.38542 21.3145 3.26172C20.9694 3.13802 20.5234 3.07617 19.9766 3.07617H17.9453V15H15.0156V0.78125H19.9766C20.8034 0.78125 21.5423 0.859375 22.1934 1.01562C22.8509 1.17188 23.4076 1.40951 23.8633 1.72852C24.319 2.04753 24.6673 2.45117 24.9082 2.93945C25.1491 3.42122 25.2695 3.99414 25.2695 4.6582C25.2695 5.24414 25.1361 5.78451 24.8691 6.2793C24.6087 6.77409 24.1953 7.17773 23.6289 7.49023C23.069 7.80273 22.3366 7.97526 21.4316 8.00781L20.582 8.75977ZM20.4551 15H16.1289L17.2715 12.7148H20.4551C20.9694 12.7148 21.3893 12.6335 21.7148 12.4707C22.0404 12.3014 22.2812 12.0736 22.4375 11.7871C22.5938 11.5007 22.6719 11.1719 22.6719 10.8008C22.6719 10.3841 22.6003 10.0228 22.457 9.7168C22.3203 9.41081 22.099 9.17643 21.793 9.01367C21.487 8.8444 21.0833 8.75977 20.582 8.75977H17.7598L17.7793 6.74805H21.2949L21.9688 7.53906C22.8346 7.52604 23.5312 7.67904 24.0586 7.99805C24.5924 8.31055 24.9798 8.71745 25.2207 9.21875C25.4681 9.72005 25.5918 10.2572 25.5918 10.8301C25.5918 11.7415 25.3932 12.5098 24.9961 13.1348C24.599 13.7533 24.0163 14.2188 23.248 14.5312C22.4863 14.8438 21.5553 15 20.4551 15ZM33.3164 12.6172V7.91016C33.3164 7.57161 33.2611 7.2819 33.1504 7.04102C33.0397 6.79362 32.8672 6.60156 32.6328 6.46484C32.4049 6.32812 32.1087 6.25977 31.7441 6.25977C31.4316 6.25977 31.1615 6.3151 30.9336 6.42578C30.7057 6.52995 30.5299 6.68294 30.4062 6.88477C30.2826 7.08008 30.2207 7.3112 30.2207 7.57812H27.4082C27.4082 7.12891 27.5124 6.70247 27.7207 6.29883C27.929 5.89518 28.2318 5.54036 28.6289 5.23438C29.026 4.92188 29.498 4.67773 30.0449 4.50195C30.5983 4.32617 31.2168 4.23828 31.9004 4.23828C32.7207 4.23828 33.4499 4.375 34.0879 4.64844C34.7259 4.92188 35.2272 5.33203 35.5918 5.87891C35.9629 6.42578 36.1484 7.10938 36.1484 7.92969V12.4512C36.1484 13.0306 36.1842 13.5059 36.2559 13.877C36.3275 14.2415 36.4316 14.5605 36.5684 14.834V15H33.7266C33.5898 14.7135 33.4857 14.3555 33.4141 13.9258C33.349 13.4896 33.3164 13.0534 33.3164 12.6172ZM33.6875 8.56445L33.707 10.1562H32.1348C31.7637 10.1562 31.4414 10.1986 31.168 10.2832C30.8945 10.3678 30.6699 10.4883 30.4941 10.6445C30.3184 10.7943 30.1882 10.9701 30.1035 11.1719C30.0254 11.3737 29.9863 11.5951 29.9863 11.8359C29.9863 12.0768 30.0417 12.2949 30.1523 12.4902C30.263 12.679 30.4225 12.8288 30.6309 12.9395C30.8392 13.0436 31.0833 13.0957 31.3633 13.0957C31.7865 13.0957 32.1543 13.0111 32.4668 12.8418C32.7793 12.6725 33.0202 12.4642 33.1895 12.2168C33.3652 11.9694 33.4564 11.735 33.4629 11.5137L34.2051 12.7051C34.1009 12.972 33.9577 13.2487 33.7754 13.5352C33.5996 13.8216 33.375 14.0918 33.1016 14.3457C32.8281 14.5931 32.4993 14.7982 32.1152 14.9609C31.7311 15.1172 31.2754 15.1953 30.748 15.1953C30.0775 15.1953 29.4688 15.0618 28.9219 14.7949C28.3815 14.5215 27.9518 14.1471 27.6328 13.6719C27.3203 13.1901 27.1641 12.6432 27.1641 12.0312C27.1641 11.4779 27.2682 10.9863 27.4766 10.5566C27.6849 10.127 27.9909 9.76562 28.3945 9.47266C28.8047 9.17318 29.3158 8.94857 29.9277 8.79883C30.5397 8.64258 31.2493 8.56445 32.0566 8.56445H33.6875ZM43.4922 4.43359V6.42578H37.3398V4.43359H43.4922ZM38.8633 1.82617H41.6758V11.8164C41.6758 12.1224 41.7148 12.3568 41.793 12.5195C41.8776 12.6823 42.0013 12.7962 42.1641 12.8613C42.3268 12.9199 42.5319 12.9492 42.7793 12.9492C42.9551 12.9492 43.1113 12.9427 43.248 12.9297C43.3913 12.9102 43.5117 12.8906 43.6094 12.8711L43.6191 14.9414C43.3783 15.0195 43.1178 15.0814 42.8379 15.127C42.5579 15.1725 42.2487 15.1953 41.9102 15.1953C41.2917 15.1953 40.7513 15.0944 40.2891 14.8926C39.8333 14.6842 39.4818 14.3522 39.2344 13.8965C38.987 13.4408 38.8633 12.8418 38.8633 12.0996V1.82617ZM50.2695 4.43359V6.42578H44.1172V4.43359H50.2695ZM45.6406 1.82617H48.4531V11.8164C48.4531 12.1224 48.4922 12.3568 48.5703 12.5195C48.6549 12.6823 48.7786 12.7962 48.9414 12.8613C49.1042 12.9199 49.3092 12.9492 49.5566 12.9492C49.7324 12.9492 49.8887 12.9427 50.0254 12.9297C50.1686 12.9102 50.2891 12.8906 50.3867 12.8711L50.3965 14.9414C50.1556 15.0195 49.8952 15.0814 49.6152 15.127C49.3353 15.1725 49.026 15.1953 48.6875 15.1953C48.069 15.1953 47.5286 15.0944 47.0664 14.8926C46.6107 14.6842 46.2591 14.3522 46.0117 13.8965C45.7643 13.4408 45.6406 12.8418 45.6406 12.0996V1.82617ZM54.8398 0V15H52.0176V0H54.8398ZM62.0273 15.1953C61.207 15.1953 60.4714 15.0651 59.8203 14.8047C59.1693 14.5378 58.6159 14.1699 58.1602 13.7012C57.7109 13.2324 57.3659 12.6888 57.125 12.0703C56.8841 11.4453 56.7637 10.7812 56.7637 10.0781V9.6875C56.7637 8.88672 56.8776 8.1543 57.1055 7.49023C57.3333 6.82617 57.6589 6.25 58.082 5.76172C58.5117 5.27344 59.0326 4.89909 59.6445 4.63867C60.2565 4.37174 60.9466 4.23828 61.7148 4.23828C62.4635 4.23828 63.1276 4.36198 63.707 4.60938C64.2865 4.85677 64.7715 5.20833 65.1621 5.66406C65.5592 6.11979 65.8587 6.66667 66.0605 7.30469C66.2624 7.9362 66.3633 8.63932 66.3633 9.41406V10.5859H57.9648V8.71094H63.5996V8.49609C63.5996 8.10547 63.528 7.75716 63.3848 7.45117C63.248 7.13867 63.0397 6.89128 62.7598 6.70898C62.4798 6.52669 62.1217 6.43555 61.6855 6.43555C61.3145 6.43555 60.9954 6.51693 60.7285 6.67969C60.4616 6.84245 60.2435 7.07031 60.0742 7.36328C59.9115 7.65625 59.7878 8.0013 59.7031 8.39844C59.625 8.78906 59.5859 9.21875 59.5859 9.6875V10.0781C59.5859 10.5013 59.6445 10.8919 59.7617 11.25C59.8854 11.6081 60.0579 11.9173 60.2793 12.1777C60.5072 12.4382 60.7806 12.64 61.0996 12.7832C61.4251 12.9264 61.793 12.998 62.2031 12.998C62.7109 12.998 63.1829 12.9004 63.6191 12.7051C64.0618 12.5033 64.4427 12.2005 64.7617 11.7969L66.1289 13.2812C65.9076 13.6003 65.6048 13.9062 65.2207 14.1992C64.8431 14.4922 64.3874 14.7331 63.8535 14.9219C63.3197 15.1042 62.7109 15.1953 62.0273 15.1953ZM75.543 11.2793C75.543 11.0254 75.5039 10.7975 75.4258 10.5957C75.3542 10.3874 75.2174 10.1986 75.0156 10.0293C74.8138 9.85352 74.5306 9.68099 74.166 9.51172C73.8014 9.34245 73.3294 9.16667 72.75 8.98438C72.1055 8.77604 71.4935 8.54167 70.9141 8.28125C70.3411 8.02083 69.8333 7.7181 69.3906 7.37305C68.9544 7.02148 68.6094 6.61458 68.3555 6.15234C68.1081 5.6901 67.9844 5.15299 67.9844 4.54102C67.9844 3.94857 68.1146 3.41146 68.375 2.92969C68.6354 2.44141 69 2.02474 69.4688 1.67969C69.9375 1.32812 70.4909 1.05794 71.1289 0.869141C71.7734 0.680339 72.4798 0.585938 73.248 0.585938C74.2962 0.585938 75.2109 0.77474 75.9922 1.15234C76.7734 1.52995 77.3789 2.04753 77.8086 2.70508C78.2448 3.36263 78.4629 4.11458 78.4629 4.96094H75.5527C75.5527 4.54427 75.4648 4.17969 75.2891 3.86719C75.1198 3.54818 74.8594 3.29753 74.5078 3.11523C74.1628 2.93294 73.7266 2.8418 73.1992 2.8418C72.6914 2.8418 72.2682 2.91992 71.9297 3.07617C71.5911 3.22591 71.3372 3.43099 71.168 3.69141C70.9987 3.94531 70.9141 4.23177 70.9141 4.55078C70.9141 4.79167 70.9727 5.00977 71.0898 5.20508C71.2135 5.40039 71.3958 5.58268 71.6367 5.75195C71.8776 5.92122 72.1738 6.08073 72.5254 6.23047C72.877 6.38021 73.2839 6.52669 73.7461 6.66992C74.5208 6.9043 75.2012 7.16797 75.7871 7.46094C76.3796 7.75391 76.8743 8.08268 77.2715 8.44727C77.6686 8.81185 77.9681 9.22526 78.1699 9.6875C78.3717 10.1497 78.4727 10.6738 78.4727 11.2598C78.4727 11.8783 78.3522 12.4316 78.1113 12.9199C77.8704 13.4082 77.5221 13.8216 77.0664 14.1602C76.6107 14.4987 76.0671 14.7559 75.4355 14.9316C74.804 15.1074 74.0977 15.1953 73.3164 15.1953C72.6133 15.1953 71.9199 15.1042 71.2363 14.9219C70.5527 14.7331 69.931 14.4499 69.3711 14.0723C68.8177 13.6947 68.375 13.2129 68.043 12.627C67.7109 12.041 67.5449 11.3477 67.5449 10.5469H70.4844C70.4844 10.9896 70.5527 11.3639 70.6895 11.6699C70.8262 11.9759 71.0182 12.2233 71.2656 12.4121C71.5195 12.6009 71.819 12.7376 72.1641 12.8223C72.5156 12.9069 72.8997 12.9492 73.3164 12.9492C73.8242 12.9492 74.2409 12.8776 74.5664 12.7344C74.8984 12.5911 75.1426 12.3926 75.2988 12.1387C75.4616 11.8848 75.543 11.5983 75.543 11.2793ZM85.4648 4.43359V6.42578H79.3125V4.43359H85.4648ZM80.8359 1.82617H83.6484V11.8164C83.6484 12.1224 83.6875 12.3568 83.7656 12.5195C83.8503 12.6823 83.974 12.7962 84.1367 12.8613C84.2995 12.9199 84.5046 12.9492 84.752 12.9492C84.9277 12.9492 85.084 12.9427 85.2207 12.9297C85.3639 12.9102 85.4844 12.8906 85.582 12.8711L85.5918 14.9414C85.3509 15.0195 85.0905 15.0814 84.8105 15.127C84.5306 15.1725 84.2214 15.1953 83.8828 15.1953C83.2643 15.1953 82.724 15.0944 82.2617 14.8926C81.806 14.6842 81.4544 14.3522 81.207 13.8965C80.9596 13.4408 80.8359 12.8418 80.8359 12.0996V1.82617ZM92.7695 12.6172V7.91016C92.7695 7.57161 92.7142 7.2819 92.6035 7.04102C92.4928 6.79362 92.3203 6.60156 92.0859 6.46484C91.8581 6.32812 91.5618 6.25977 91.1973 6.25977C90.8848 6.25977 90.6146 6.3151 90.3867 6.42578C90.1589 6.52995 89.9831 6.68294 89.8594 6.88477C89.7357 7.08008 89.6738 7.3112 89.6738 7.57812H86.8613C86.8613 7.12891 86.9655 6.70247 87.1738 6.29883C87.3822 5.89518 87.6849 5.54036 88.082 5.23438C88.4792 4.92188 88.9512 4.67773 89.498 4.50195C90.0514 4.32617 90.6699 4.23828 91.3535 4.23828C92.1738 4.23828 92.903 4.375 93.541 4.64844C94.179 4.92188 94.6803 5.33203 95.0449 5.87891C95.416 6.42578 95.6016 7.10938 95.6016 7.92969V12.4512C95.6016 13.0306 95.6374 13.5059 95.709 13.877C95.7806 14.2415 95.8848 14.5605 96.0215 14.834V15H93.1797C93.043 14.7135 92.9388 14.3555 92.8672 13.9258C92.8021 13.4896 92.7695 13.0534 92.7695 12.6172ZM93.1406 8.56445L93.1602 10.1562H91.5879C91.2168 10.1562 90.8945 10.1986 90.6211 10.2832C90.3477 10.3678 90.123 10.4883 89.9473 10.6445C89.7715 10.7943 89.6413 10.9701 89.5566 11.1719C89.4785 11.3737 89.4395 11.5951 89.4395 11.8359C89.4395 12.0768 89.4948 12.2949 89.6055 12.4902C89.7161 12.679 89.8757 12.8288 90.084 12.9395C90.2923 13.0436 90.5365 13.0957 90.8164 13.0957C91.2396 13.0957 91.6074 13.0111 91.9199 12.8418C92.2324 12.6725 92.4733 12.4642 92.6426 12.2168C92.8184 11.9694 92.9095 11.735 92.916 11.5137L93.6582 12.7051C93.554 12.972 93.4108 13.2487 93.2285 13.5352C93.0527 13.8216 92.8281 14.0918 92.5547 14.3457C92.2812 14.5931 91.9525 14.7982 91.5684 14.9609C91.1842 15.1172 90.7285 15.1953 90.2012 15.1953C89.5306 15.1953 88.9219 15.0618 88.375 14.7949C87.8346 14.5215 87.4049 14.1471 87.0859 13.6719C86.7734 13.1901 86.6172 12.6432 86.6172 12.0312C86.6172 11.4779 86.7214 10.9863 86.9297 10.5566C87.138 10.127 87.444 9.76562 87.8477 9.47266C88.2578 9.17318 88.7689 8.94857 89.3809 8.79883C89.9928 8.64258 90.7025 8.56445 91.5098 8.56445H93.1406ZM102.945 4.43359V6.42578H96.793V4.43359H102.945ZM98.3164 1.82617H101.129V11.8164C101.129 12.1224 101.168 12.3568 101.246 12.5195C101.331 12.6823 101.454 12.7962 101.617 12.8613C101.78 12.9199 101.985 12.9492 102.232 12.9492C102.408 12.9492 102.564 12.9427 102.701 12.9297C102.844 12.9102 102.965 12.8906 103.062 12.8711L103.072 14.9414C102.831 15.0195 102.571 15.0814 102.291 15.127C102.011 15.1725 101.702 15.1953 101.363 15.1953C100.745 15.1953 100.204 15.0944 99.7422 14.8926C99.2865 14.6842 98.9349 14.3522 98.6875 13.8965C98.4401 13.4408 98.3164 12.8418 98.3164 12.0996V1.82617ZM107.516 4.43359V15H104.693V4.43359H107.516ZM104.518 1.67969C104.518 1.26953 104.661 0.93099 104.947 0.664062C105.234 0.397135 105.618 0.263672 106.1 0.263672C106.575 0.263672 106.956 0.397135 107.242 0.664062C107.535 0.93099 107.682 1.26953 107.682 1.67969C107.682 2.08984 107.535 2.42839 107.242 2.69531C106.956 2.96224 106.575 3.0957 106.1 3.0957C105.618 3.0957 105.234 2.96224 104.947 2.69531C104.661 2.42839 104.518 2.08984 104.518 1.67969ZM109.391 9.82422V9.61914C109.391 8.8444 109.501 8.13151 109.723 7.48047C109.944 6.82292 110.266 6.25326 110.689 5.77148C111.113 5.28971 111.633 4.91536 112.252 4.64844C112.87 4.375 113.58 4.23828 114.381 4.23828C115.182 4.23828 115.895 4.375 116.52 4.64844C117.145 4.91536 117.669 5.28971 118.092 5.77148C118.521 6.25326 118.847 6.82292 119.068 7.48047C119.29 8.13151 119.4 8.8444 119.4 9.61914V9.82422C119.4 10.5924 119.29 11.3053 119.068 11.9629C118.847 12.6139 118.521 13.1836 118.092 13.6719C117.669 14.1536 117.148 14.528 116.529 14.7949C115.911 15.0618 115.201 15.1953 114.4 15.1953C113.6 15.1953 112.887 15.0618 112.262 14.7949C111.643 14.528 111.119 14.1536 110.689 13.6719C110.266 13.1836 109.944 12.6139 109.723 11.9629C109.501 11.3053 109.391 10.5924 109.391 9.82422ZM112.203 9.61914V9.82422C112.203 10.2669 112.242 10.6803 112.32 11.0645C112.398 11.4486 112.522 11.7871 112.691 12.0801C112.867 12.3665 113.095 12.5911 113.375 12.7539C113.655 12.9167 113.997 12.998 114.4 12.998C114.791 12.998 115.126 12.9167 115.406 12.7539C115.686 12.5911 115.911 12.3665 116.08 12.0801C116.249 11.7871 116.373 11.4486 116.451 11.0645C116.536 10.6803 116.578 10.2669 116.578 9.82422V9.61914C116.578 9.18945 116.536 8.78581 116.451 8.4082C116.373 8.02409 116.246 7.68555 116.07 7.39258C115.901 7.0931 115.676 6.85872 115.396 6.68945C115.117 6.52018 114.778 6.43555 114.381 6.43555C113.984 6.43555 113.645 6.52018 113.365 6.68945C113.092 6.85872 112.867 7.0931 112.691 7.39258C112.522 7.68555 112.398 8.02409 112.32 8.4082C112.242 8.78581 112.203 9.18945 112.203 9.61914ZM123.883 6.68945V15H121.07V4.43359H123.707L123.883 6.68945ZM123.473 9.3457H122.711C122.711 8.56445 122.812 7.86133 123.014 7.23633C123.215 6.60482 123.499 6.06771 123.863 5.625C124.228 5.17578 124.661 4.83398 125.162 4.59961C125.67 4.35872 126.236 4.23828 126.861 4.23828C127.356 4.23828 127.809 4.3099 128.219 4.45312C128.629 4.59635 128.98 4.82422 129.273 5.13672C129.573 5.44922 129.801 5.86263 129.957 6.37695C130.12 6.89128 130.201 7.51953 130.201 8.26172V15H127.369V8.25195C127.369 7.7832 127.304 7.41862 127.174 7.1582C127.044 6.89779 126.852 6.71549 126.598 6.61133C126.35 6.50065 126.044 6.44531 125.68 6.44531C125.302 6.44531 124.973 6.52018 124.693 6.66992C124.42 6.81966 124.192 7.02799 124.01 7.29492C123.834 7.55534 123.701 7.86133 123.609 8.21289C123.518 8.56445 123.473 8.94206 123.473 9.3457ZM138.053 12.0801C138.053 11.8783 137.994 11.696 137.877 11.5332C137.76 11.3704 137.542 11.2207 137.223 11.084C136.91 10.9408 136.458 10.8105 135.865 10.6934C135.331 10.5762 134.833 10.4297 134.371 10.2539C133.915 10.0716 133.518 9.85352 133.18 9.59961C132.848 9.3457 132.587 9.04622 132.398 8.70117C132.21 8.34961 132.115 7.94922 132.115 7.5C132.115 7.05729 132.21 6.64062 132.398 6.25C132.594 5.85938 132.87 5.51432 133.229 5.21484C133.593 4.90885 134.036 4.67122 134.557 4.50195C135.084 4.32617 135.676 4.23828 136.334 4.23828C137.252 4.23828 138.04 4.38477 138.697 4.67773C139.361 4.9707 139.869 5.37435 140.221 5.88867C140.579 6.39648 140.758 6.97591 140.758 7.62695H137.945C137.945 7.35352 137.887 7.10938 137.77 6.89453C137.659 6.67318 137.483 6.50065 137.242 6.37695C137.008 6.24674 136.702 6.18164 136.324 6.18164C136.012 6.18164 135.742 6.23698 135.514 6.34766C135.286 6.45182 135.11 6.59505 134.986 6.77734C134.869 6.95312 134.811 7.14844 134.811 7.36328C134.811 7.52604 134.843 7.67253 134.908 7.80273C134.98 7.92643 135.094 8.04036 135.25 8.14453C135.406 8.2487 135.608 8.34635 135.855 8.4375C136.109 8.52214 136.422 8.60026 136.793 8.67188C137.555 8.82812 138.235 9.0332 138.834 9.28711C139.433 9.53451 139.908 9.87305 140.26 10.3027C140.611 10.7259 140.787 11.2826 140.787 11.9727C140.787 12.4414 140.683 12.8711 140.475 13.2617C140.266 13.6523 139.967 13.9941 139.576 14.2871C139.186 14.5736 138.717 14.7982 138.17 14.9609C137.63 15.1172 137.021 15.1953 136.344 15.1953C135.361 15.1953 134.527 15.0195 133.844 14.668C133.167 14.3164 132.652 13.8704 132.301 13.3301C131.956 12.7832 131.783 12.2233 131.783 11.6504H134.449C134.462 12.0345 134.56 12.3438 134.742 12.5781C134.931 12.8125 135.169 12.9818 135.455 13.0859C135.748 13.1901 136.064 13.2422 136.402 13.2422C136.767 13.2422 137.07 13.1934 137.311 13.0957C137.551 12.9915 137.734 12.8548 137.857 12.6855C137.988 12.5098 138.053 12.3079 138.053 12.0801Z" fill="black" fill-opacity="0.87"/>
</svg>
