<svg width="37" height="36" viewBox="0 0 37 36" fill="none" xmlns="http://www.w3.org/2000/svg">
<path d="M18.091 36C28.0824 36 36.1821 27.9411 36.1821 18C36.1821 8.05888 28.0824 0 18.091 0C8.09963 0 0 8.05888 0 18C0 27.9411 8.09963 36 18.091 36Z" fill="#00A010"/>
<path d="M30.1562 18C30.1022 16.5504 28.8791 15.4184 27.4176 15.4676C26.77 15.49 26.154 15.7539 25.6863 16.1969C23.6267 14.8009 21.2074 14.0358 18.7206 13.9821L19.8943 8.36692L23.7661 9.17676C23.874 10.1656 24.7644 10.8815 25.7582 10.7741C26.752 10.6667 27.4716 9.78079 27.3636 8.79197C27.2557 7.80316 26.3653 7.08727 25.3715 7.19466C24.8004 7.25282 24.2877 7.58392 24.0044 8.07609L19.5705 7.19466C19.2692 7.12754 18.9679 7.31546 18.9005 7.61971C18.9005 7.62419 18.9005 7.62419 18.9005 7.62866L17.5649 13.8747C15.0466 13.915 12.5958 14.6846 10.5092 16.0895C9.44798 15.0962 7.77514 15.1454 6.77682 16.2058C5.77851 17.2618 5.82798 18.9262 6.89374 19.9195C7.1006 20.1119 7.33894 20.2774 7.60425 20.3938C7.58627 20.6577 7.58627 20.9217 7.60425 21.1857C7.60425 25.217 12.326 28.4967 18.1495 28.4967C23.973 28.4967 28.6947 25.2215 28.6947 21.1857C28.7127 20.9217 28.7127 20.6577 28.6947 20.3938C29.6031 19.9419 30.1742 19.0112 30.1562 18ZM12.0652 19.8032C12.0652 18.8099 12.8791 18 13.8774 18C14.8757 18 15.6897 18.8099 15.6897 19.8032C15.6897 20.7964 14.8757 21.6063 13.8774 21.6063C12.8746 21.5973 12.0652 20.7964 12.0652 19.8032ZM22.5744 24.7517C21.2883 25.7137 19.7144 26.2058 18.1045 26.1387C16.4946 26.2058 14.9207 25.7137 13.6346 24.7517C13.4637 24.5459 13.4952 24.2372 13.702 24.0671C13.8819 23.9195 14.1382 23.9195 14.3226 24.0671C15.4109 24.8591 16.7375 25.2618 18.0865 25.1991C19.4356 25.2707 20.7667 24.8859 21.8684 24.1029C22.0663 23.9105 22.3901 23.915 22.5834 24.1119C22.7768 24.3088 22.7723 24.6309 22.5744 24.8233V24.7517ZM22.2507 21.6689C21.2523 21.6689 20.4384 20.8591 20.4384 19.8658C20.4384 18.8725 21.2523 18.0627 22.2507 18.0627C23.249 18.0627 24.0629 18.8725 24.0629 19.8658C24.1034 20.8591 23.3254 21.6958 22.3271 21.736C22.2956 21.736 22.2686 21.736 22.2372 21.736L22.2507 21.6689Z" fill="white"/>
</svg>
